<?xml version="1.0" standalone="no"?>
<!DOCTYPE svg PUBLIC "-//W3C//DTD SVG 20010904//EN"
 "http://www.w3.org/TR/2001/REC-SVG-20010904/DTD/svg10.dtd">
<svg version="1.0" xmlns="http://www.w3.org/2000/svg"
 width="366.000000pt" height="366.000000pt" viewBox="0 0 366.000000 366.000000"
 preserveAspectRatio="xMidYMid meet">
<metadata>
Created by potrace 1.11, written by Peter Selinger 2001-2013
</metadata>
<g transform="translate(0.000000,366.000000) scale(0.100000,-0.100000)"
fill="#000000" stroke="none">
<path d="M1775 3613 c-504 -21 -959 -237 -1280 -608 -33 -38 -63 -74 -67 -80
-4 -5 -18 -23 -31 -40 -58 -76 -185 -295 -171 -295 4 0 -1 -9 -11 -20 -10 -11
-15 -20 -10 -20 4 0 3 -6 -3 -12 -28 -36 -103 -288 -122 -413 -18 -125 -20
-148 -20 -282 -1 -222 23 -373 90 -575 39 -117 96 -247 113 -259 5 -3 9 -10 9
-15 0 -21 112 -202 138 -224 3 -3 21 -26 40 -52 18 -27 37 -48 41 -48 14 0 18
-30 9 -56 -11 -27 -12 -27 33 -9 7 3 27 -9 44 -27 63 -69 189 -172 278 -229
84 -54 102 -64 170 -99 251 -129 516 -191 814 -191 209 1 316 18 576 95 6 2
21 8 35 13 14 6 45 19 70 29 25 10 55 24 67 32 12 7 24 13 28 13 7 -2 68 30
75 38 3 3 19 13 35 21 34 17 178 114 214 145 116 98 217 200 276 280 17 22 33
42 36 45 33 27 156 243 217 380 51 116 113 358 126 495 7 63 8 332 2 365 -3
14 -7 45 -10 70 -17 133 -71 332 -117 435 -12 28 -23 52 -24 55 -7 29 -110
217 -131 238 -7 6 -16 21 -19 32 -3 11 -11 20 -16 20 -5 0 -9 7 -9 15 0 8 -4
15 -8 15 -4 0 -15 12 -24 28 -9 15 -34 46 -55 68 -21 23 -56 61 -78 86 -49 53
-186 172 -246 213 -24 16 -46 32 -49 35 -6 7 -68 43 -146 86 -257 139 -597
218 -889 207z m198 -73 c219 -20 414 -74 604 -166 54 -26 100 -50 103 -53 3
-3 22 -15 43 -27 181 -99 456 -376 571 -574 52 -91 126 -248 133 -284 2 -11 8
-24 13 -31 5 -6 11 -22 14 -35 2 -14 11 -47 20 -75 23 -79 47 -203 54 -290 13
-147 4 -397 -16 -475 -5 -19 -15 -60 -21 -90 -7 -30 -24 -91 -39 -135 -14 -44
-27 -82 -27 -85 -11 -48 -116 -248 -178 -341 -135 -199 -328 -384 -529 -507
-100 -62 -302 -155 -312 -144 -3 3 -6 1 -6 -5 0 -5 -6 -10 -12 -11 -7 0 -62
-14 -123 -30 -158 -43 -275 -57 -445 -57 -94 1 -247 12 -260 20 -3 2 -24 6
-45 9 -22 3 -60 10 -85 17 -25 6 -52 12 -60 14 -8 2 -16 4 -17 4 -2 1 -5 1 -8
2 -2 0 -35 12 -72 26 -37 13 -72 26 -78 27 -23 5 -193 91 -254 128 -80 49
-191 132 -248 186 -52 48 -55 79 -18 152 27 53 26 73 -10 190 -8 25 -16 61
-19 80 -21 145 -49 208 -118 266 -21 19 -47 52 -42 57 2 2 -5 12 -16 22 -19
17 -55 119 -64 181 -3 16 -12 54 -20 84 -9 30 -16 64 -16 75 0 33 25 -3 45
-64 10 -29 26 -62 35 -71 21 -21 40 -54 40 -70 0 -6 -10 -15 -23 -20 -19 -8
-18 -9 14 -9 27 -1 40 -8 57 -31 28 -37 28 -55 0 -74 -33 -23 -8 -19 27 4 18
12 47 20 72 20 23 0 48 3 57 6 27 10 7 24 -34 24 -35 0 -42 4 -55 33 -8 17
-25 45 -37 60 -20 25 -23 42 -27 143 -2 86 0 120 11 137 8 12 22 44 32 70 15
39 22 48 40 45 18 -3 21 -10 22 -55 1 -40 -3 -56 -18 -69 -12 -12 -15 -20 -7
-24 13 -9 20 -114 10 -144 -6 -15 -1 -25 18 -42 15 -12 37 -45 51 -73 23 -50
24 -51 67 -51 46 0 79 -14 101 -42 14 -18 42 -25 42 -10 0 19 -59 53 -132 76
-34 10 -53 61 -63 166 -2 23 6 54 26 94 34 70 35 75 9 51 -26 -24 -57 -90 -65
-138 -4 -23 -11 -37 -18 -34 -14 4 -14 62 -3 209 7 91 7 97 -12 107 -32 17
-45 13 -69 -22 -13 -17 -30 -42 -39 -54 -20 -27 -24 -54 -31 -172 -4 -83 -2
-99 18 -142 24 -53 22 -67 -9 -50 -18 9 -28 34 -38 89 -1 8 -10 22 -18 31 -9
10 -16 25 -16 35 0 29 -40 97 -63 105 -31 12 -33 8 -40 -51 -9 -74 14 -173 62
-268 22 -44 37 -80 34 -80 -4 0 11 -17 33 -39 87 -85 118 -154 130 -286 3 -27
12 -70 20 -95 29 -84 28 -106 -2 -132 -15 -13 -36 -31 -46 -41 -19 -18 -38
-23 -38 -9 0 5 -16 26 -35 48 -47 52 -136 185 -180 269 -72 135 -125 281 -160
435 -9 41 -18 84 -21 95 -18 80 -24 313 -11 450 9 105 14 132 43 245 14 52 26
102 28 110 10 40 61 166 69 171 5 3 8 8 7 10 -8 15 100 210 167 299 141 190
322 355 507 465 86 51 222 117 251 122 10 2 22 8 26 15 4 6 12 7 18 4 6 -4 11
-3 11 2 0 5 6 9 13 10 15 1 38 7 57 15 17 7 91 25 135 33 17 3 46 9 65 14 19
5 73 12 120 16 47 4 86 7 87 9 9 7 132 4 236 -5z m-1354 -2837 c-18 -21 -35
-39 -35 -41 -1 -2 -5 1 -8 6 -7 12 50 72 67 72 6 0 -5 -17 -24 -37z"/>
<path d="M2155 3259 c-49 -14 -105 -21 -188 -22 -66 -1 -121 -6 -125 -12 -17
-24 -173 -116 -227 -134 -34 -11 -70 -31 -82 -46 -22 -25 -25 -39 -26 -110 0
-42 29 -99 58 -115 14 -7 25 -19 25 -26 0 -8 11 -38 25 -68 30 -66 31 -77 5
-152 -12 -32 -27 -77 -34 -99 -8 -22 -19 -53 -26 -70 -7 -16 -15 -37 -18 -45
-8 -24 -10 -134 -3 -145 7 -12 9 -95 1 -95 -3 0 -5 -10 -6 -22 0 -25 -10 -97
-18 -138 -26 -126 -26 -192 -1 -320 4 -19 9 -46 10 -60 2 -14 4 -25 5 -25 2 0
5 -19 14 -75 9 -61 17 -92 28 -114 6 -12 10 -21 9 -21 -8 0 17 -69 46 -122 18
-35 30 -63 25 -63 -4 0 1 -5 11 -11 9 -6 15 -14 12 -19 -3 -5 -1 -11 5 -15 5
-3 10 -15 10 -26 0 -10 5 -19 10 -19 6 0 9 -3 8 -7 -5 -19 14 -51 37 -63 28
-15 69 -20 245 -30 16 -1 20 -4 10 -7 -8 -3 -26 -10 -40 -15 -20 -7 -22 -11
-10 -19 22 -14 -39 -6 -66 8 -30 17 -66 5 -62 -20 2 -11 -3 -21 -12 -23 -8 -2
-31 -6 -50 -9 -19 -4 -61 -13 -92 -20 -31 -7 -59 -10 -62 -7 -3 3 -6 1 -6 -4
0 -13 -111 -10 -140 4 -14 7 -48 25 -76 40 -52 29 -62 30 -104 17 -25 -8 -22
4 12 41 11 12 21 28 22 35 2 8 10 31 20 51 9 21 18 53 21 72 2 19 11 46 20 59
31 48 29 96 -7 167 -18 35 -39 66 -46 68 -20 6 -12 -35 15 -80 29 -48 29 -69
-3 -170 -28 -89 -32 -104 -33 -130 -1 -19 -133 -174 -190 -223 -78 -66 -94
-92 -63 -103 6 -2 17 9 24 25 16 37 67 82 87 77 9 -2 32 -7 52 -12 36 -9 84
-8 145 3 29 5 37 0 98 -69 77 -85 109 -99 201 -84 62 9 126 41 194 94 28 22
50 33 60 29 9 -4 40 -9 69 -12 31 -4 52 -11 52 -18 0 -6 9 -20 20 -30 19 -18
20 -17 20 2 0 37 -22 85 -36 79 -8 -3 -14 1 -14 9 0 23 62 15 89 -11 13 -13
30 -24 38 -24 16 0 10 14 -20 48 -13 13 -16 22 -8 22 18 0 53 -20 71 -41 22
-26 70 -36 70 -15 0 9 -9 21 -20 28 -26 17 -25 40 3 64 41 37 75 53 119 58 63
7 81 12 129 37 68 34 119 71 113 80 -10 17 -41 9 -107 -26 -47 -25 -77 -34
-106 -33 -31 1 -53 -8 -104 -40 -35 -23 -68 -42 -73 -42 -6 0 -21 -11 -34 -25
-25 -27 -45 -32 -55 -15 -9 14 13 46 75 110 27 29 50 61 50 70 0 10 26 46 58
80 32 34 67 78 78 98 10 20 21 39 24 42 3 3 25 31 49 63 25 32 61 73 81 90 20
18 47 47 60 64 13 18 41 45 62 59 47 33 48 44 3 37 -30 -5 -34 -3 -29 11 4 9
9 15 12 12 7 -8 65 24 89 50 12 13 19 24 15 24 -4 0 1 5 11 11 21 12 46 60 49
94 1 14 5 25 8 25 7 0 11 43 12 131 1 81 -21 143 -53 145 -32 2 -37 5 -42 26
-4 12 -1 28 5 35 6 7 7 13 3 13 -5 0 0 9 10 20 18 19 17 20 -21 36 l-39 16 36
18 c19 10 40 30 47 44 15 34 73 48 182 44 l88 -3 44 49 c23 27 50 59 58 70 8
12 25 29 38 40 52 41 48 75 -19 166 -37 50 -139 225 -139 238 0 5 -4 12 -8 14
-5 2 -24 32 -43 67 -41 79 -112 158 -183 205 -63 42 -73 44 -244 50 -73 3
-151 10 -175 17 -23 6 -49 13 -57 14 -8 2 -31 9 -50 14 -42 13 -30 14 -115
-10z m145 -23 c44 -39 193 -59 341 -45 72 6 227 -103 270 -190 7 -14 71 -124
143 -244 149 -250 145 -225 45 -325 l-53 -53 -119 -5 -119 -6 4 49 3 48 78 3
c48 2 77 0 77 -7 0 -14 -16 -22 -57 -27 -20 -3 -40 -7 -45 -10 -14 -9 2 -24
25 -24 26 0 107 27 124 42 17 13 17 53 1 66 -14 11 -97 26 -135 25 -13 -1 -34
-1 -48 -2 -14 -1 -27 -7 -29 -13 -47 -171 -88 -277 -108 -279 -39 -5 -62 3
-98 33 -22 18 -40 38 -40 44 0 6 -13 17 -29 25 -16 8 -50 27 -76 43 -120 74
-350 118 -510 97 -139 -18 -149 -20 -251 -56 l-95 -34 6 32 c4 18 18 58 30 89
26 64 33 93 40 157 3 33 13 53 37 78 17 18 38 33 45 33 7 0 13 3 13 8 0 4 14
16 30 27 35 24 42 65 10 65 -11 0 -20 7 -20 15 0 20 -22 65 -32 65 -4 0 -8 -7
-8 -15 0 -21 -27 -19 -34 3 -3 9 -6 34 -8 55 -3 45 -14 55 -35 34 -14 -14 -13
-20 6 -59 24 -49 48 -78 76 -94 11 -6 20 -20 21 -30 0 -18 -71 -93 -108 -115
-20 -11 -23 -1 -33 94 -10 94 -31 128 -65 107 -11 -7 -10 -13 3 -34 9 -14 17
-32 17 -41 0 -21 -30 -19 -32 3 0 9 -2 22 -2 29 -1 6 -4 14 -7 18 -6 6 -3 54
6 90 2 12 33 36 75 60 75 43 162 96 170 105 18 19 71 29 184 34 78 4 135 11
144 19 13 10 36 14 137 24 11 1 26 -4 35 -11z m-103 -2238 c-12 -13 -39 -44
-60 -70 -21 -26 -58 -56 -83 -67 -26 -12 -53 -35 -62 -51 -17 -30 -28 -35 -56
-24 -21 8 -21 68 0 88 8 9 19 14 23 12 4 -3 19 -7 34 -10 33 -6 46 12 22 31
-11 7 -17 13 -14 14 2 0 13 2 24 3 11 2 36 12 55 24 54 33 124 71 132 72 4 0
-3 -10 -15 -22z m-812 -128 c10 -11 23 -20 29 -20 7 0 19 -9 29 -20 14 -17 32
-24 57 -22 34 2 146 22 220 38 109 24 150 28 162 15 7 -7 9 -12 3 -11 -5 2
-12 1 -15 0 -3 -1 -14 -3 -25 -5 -54 -9 -142 -38 -155 -51 -13 -13 -13 -16 4
-26 15 -8 16 -12 5 -19 -8 -5 -27 -9 -44 -9 -22 0 -26 -3 -17 -12 13 -13 91
-15 101 -2 3 5 18 15 33 23 15 8 28 23 30 35 3 20 61 46 74 33 18 -17 -16 -47
-103 -92 -87 -44 -105 -49 -159 -48 -70 1 -109 18 -147 65 -94 113 -155 158
-141 103 7 -28 -4 -31 -104 -26 -32 1 -23 22 16 35 17 6 37 17 44 24 19 19 82
15 103 -8z"/>
<path d="M2107 3124 c-3 -3 1 -27 8 -52 7 -26 16 -60 20 -77 6 -29 7 -29 21
-11 36 50 -9 179 -49 140z"/>
<path d="M2354 3112 c-27 -22 -51 -66 -64 -119 -6 -23 -16 -45 -22 -49 -7 -5
-9 0 -6 14 4 12 2 25 -3 28 -5 3 -9 11 -7 17 1 7 -1 29 -5 49 -6 27 -12 36
-22 31 -11 -4 -15 -21 -15 -63 0 -72 -23 -130 -50 -130 -11 0 -20 -4 -20 -9 0
-14 18 -23 24 -12 3 5 15 7 25 4 14 -3 22 3 30 24 l11 28 -5 -27 c-3 -15 0
-30 7 -34 17 -11 52 39 73 104 9 31 31 74 47 94 35 45 36 78 2 50z"/>
<path d="M1913 3089 c-19 -19 11 -66 86 -136 36 -35 69 -63 74 -63 14 0 7 28
-18 64 -14 20 -25 39 -25 42 0 8 -92 104 -100 104 -3 0 -11 -5 -17 -11z"/>
<path d="M1783 3042 c-6 -31 -6 -56 0 -70 16 -35 27 -26 27 21 0 24 5 48 12
55 8 8 8 15 -2 27 -20 24 -27 18 -37 -33z"/>
<path d="M2585 2993 c-16 -10 -36 -18 -44 -19 -19 -4 -71 -55 -71 -71 0 -20
15 -16 50 13 45 38 46 24 2 -32 -56 -70 -58 -90 -15 -105 19 -6 36 -9 37 -7 2
1 15 21 29 43 14 22 48 64 76 94 28 30 49 56 47 59 -3 2 -21 -5 -41 -17 -50
-29 -57 -26 -16 8 54 45 13 71 -54 34z"/>
<path d="M2755 2962 c-37 -23 -175 -170 -175 -186 0 -6 28 20 63 57 64 70 70
73 158 76 14 1 36 9 47 20 21 17 21 19 4 32 -25 22 -63 22 -97 1z"/>
<path d="M1917 2917 c-10 -27 23 -60 48 -47 3 1 10 3 15 4 6 0 10 6 9 11 0 6
-7 9 -15 7 -8 -2 -14 2 -14 7 0 17 -37 33 -43 18z"/>
<path d="M1851 2888 c-12 -35 2 -56 25 -37 21 18 23 49 4 59 -15 8 -20 4 -29
-22z"/>
<path d="M2286 2888 c-20 -28 -20 -38 -1 -38 17 0 55 35 55 50 0 19 -39 10
-54 -12z"/>
<path d="M2401 2865 c-14 -19 -27 -26 -41 -22 -13 3 -20 1 -18 -5 4 -11 18
-15 62 -21 24 -3 46 47 29 64 -7 7 -17 3 -32 -16z"/>
<path d="M2790 2883 c-20 -7 -93 -55 -102 -68 -4 -5 -8 -6 -8 -2 0 14 -70 -62
-70 -77 0 -23 35 -28 76 -11 48 20 82 26 89 15 4 -7 -52 -33 -63 -30 -6 2 -42
-43 -42 -52 0 -6 28 -7 68 -4 137 12 172 13 172 5 0 -5 -9 -9 -19 -9 -30 0
-51 -11 -51 -27 0 -11 10 -13 43 -9 23 2 42 5 42 6 0 6 65 8 69 1 10 -15 -78
-34 -157 -33 -57 1 -77 -2 -74 -11 2 -7 19 -12 38 -11 74 1 135 8 152 16 13 7
17 4 17 -11 0 -24 20 -36 73 -44 29 -4 39 -2 44 9 8 20 -15 42 -49 46 -42 6
-44 16 -5 23 41 8 56 31 26 40 -10 4 -19 15 -19 26 0 12 -7 20 -20 21 -11 0
-38 2 -60 4 -22 1 -43 3 -47 4 -5 1 -11 2 -15 1 -79 -11 -118 -11 -118 0 0 7
2 10 5 7 3 -3 31 5 62 17 31 13 62 21 69 18 16 -6 27 13 19 36 -12 37 -72 47
-162 26 -77 -18 -73 -18 -73 -4 0 5 24 21 54 34 54 24 73 40 59 48 -5 2 -15 2
-23 0z"/>
<path d="M2680 2544 c0 -13 48 -59 55 -52 3 2 -9 17 -25 33 -17 16 -30 24 -30
19z"/>
<path d="M2630 2501 c0 -5 7 -14 15 -21 12 -10 15 -10 15 3 0 8 -7 17 -15 21
-8 3 -15 2 -15 -3z"/>
<path d="M2700 2440 c0 -5 9 -10 21 -10 11 0 17 5 14 10 -3 6 -13 10 -21 10
-8 0 -14 -4 -14 -10z"/>
<path d="M2662 2358 c6 -18 28 -21 28 -4 0 9 -7 16 -16 16 -9 0 -14 -5 -12
-12z"/>
<path d="M934 1876 c-74 -27 -130 -61 -138 -83 -5 -13 -4 -14 9 -3 9 7 18 11
20 8 3 -3 40 3 83 13 42 11 83 19 91 19 27 0 -28 -46 -68 -59 -32 -9 -38 -15
-34 -33 3 -16 -7 -36 -31 -63 -21 -24 -33 -46 -30 -55 3 -8 9 -40 14 -70 21
-139 39 -145 80 -24 11 32 25 61 32 65 6 4 40 5 76 3 69 -5 102 -20 179 -81
24 -20 44 -30 47 -24 7 10 -14 51 -25 51 -4 0 -29 18 -58 41 -60 48 -134 64
-233 50 -4 -1 -13 -19 -19 -41 -7 -22 -17 -40 -24 -40 -22 0 -46 74 -27 82 5
2 28 29 51 61 24 31 54 60 66 63 29 7 47 48 41 93 -3 29 -19 52 -36 50 -3 0
-32 -10 -66 -23z"/>
<path d="M2770 1590 c-8 -5 -11 -12 -7 -16 7 -7 -54 -54 -69 -54 -4 0 -23 -10
-41 -22 -23 -17 -33 -31 -33 -50 0 -18 -9 -33 -26 -45 -71 -50 -85 -66 -80
-88 5 -18 -2 -28 -33 -49 -48 -34 -76 -64 -68 -73 4 -3 17 5 29 18 51 54 286
199 324 199 8 0 14 5 14 10 0 18 -24 11 -104 -30 -44 -22 -84 -39 -90 -37 -5
2 27 26 72 53 62 37 82 54 80 68 -4 26 23 40 63 32 50 -9 63 -20 51 -42 -11
-20 -2 -58 29 -115 30 -57 26 -63 -53 -83 -109 -28 -354 -125 -317 -126 9 0
47 13 85 28 69 29 190 71 209 73 6 1 20 5 32 10 21 8 102 22 131 22 8 0 10 7
7 16 -13 32 -9 35 43 36 49 1 71 12 72 37 0 4 -30 8 -67 10 l-68 3 -30 75
c-39 96 -40 97 -75 105 -17 4 -35 15 -40 26 -12 21 -18 23 -40 9z"/>
<path d="M1000 1517 c0 -7 9 -20 20 -30 23 -19 17 -43 -13 -51 l-21 -5 22 -23
c12 -13 24 -42 28 -63 10 -66 26 -88 89 -122 51 -27 62 -38 82 -84 24 -53 58
-99 75 -99 15 0 8 34 -17 88 -23 50 -24 55 -9 84 14 27 14 33 -1 63 -11 25
-14 53 -11 104 4 70 4 71 -20 71 -23 0 -24 -3 -23 -62 0 -35 5 -84 11 -109 7
-28 7 -52 2 -62 -8 -14 -15 -13 -64 10 -67 30 -62 26 -66 65 -2 18 -6 44 -9
58 -27 108 -15 137 48 115 20 -7 37 -10 37 -7 0 11 -36 31 -57 32 -13 0 -37 9
-55 20 -38 23 -48 25 -48 7z"/>
<path d="M1270 1465 c0 -8 7 -15 15 -15 8 0 15 7 15 15 0 8 -7 15 -15 15 -8 0
-15 -7 -15 -15z"/>
<path d="M2695 1333 c-36 -8 -149 -67 -138 -70 7 -3 25 3 42 11 16 9 32 12 35
7 3 -4 -7 -14 -22 -22 -42 -21 -172 -107 -222 -148 -68 -54 -210 -193 -210
-205 0 -5 17 6 38 26 77 73 418 323 470 344 60 24 99 54 70 54 -9 0 -22 2 -30
4 -7 2 -22 2 -33 -1z"/>
<path d="M3027 1275 c-15 -14 -38 -25 -50 -25 -12 0 -33 -9 -47 -19 -38 -30
-13 -51 61 -51 33 0 59 -4 59 -10 0 -5 10 -10 21 -10 20 0 21 4 16 53 -7 58
-15 87 -26 87 -3 0 -19 -12 -34 -25z"/>
<path d="M642 1282 c25 -52 66 -101 86 -102 29 0 106 -71 139 -127 39 -67 68
-51 33 19 -16 31 -79 88 -111 99 -15 6 -45 32 -67 58 -23 27 -50 51 -62 54
-12 3 -20 2 -18 -1z"/>
<path d="M857 1253 c-36 -19 -33 -20 26 -15 30 2 47 8 44 16 -5 16 -38 16 -70
-1z"/>
<path d="M1282 1238 c5 -15 28 -18 29 -3 0 6 -7 12 -17 13 -10 3 -15 -1 -12
-10z"/>
<path d="M2558 1120 c-31 -9 -169 -78 -182 -91 -21 -19 17 -8 82 25 37 18 84
39 104 45 64 21 60 40 -4 21z"/>
<path d="M1010 954 c0 -17 46 -104 57 -109 30 -11 -5 88 -37 105 -11 6 -20 8
-20 4z"/>
<path d="M957 648 c-21 -11 -80 -32 -132 -47 -52 -15 -97 -30 -101 -33 -14
-15 88 8 176 38 52 18 96 32 97 30 2 -1 -5 -11 -15 -22 -31 -34 -55 -77 -58
-105 -3 -26 -3 -27 32 -16 24 7 36 18 41 36 3 14 12 38 20 53 7 15 13 29 12
30 -2 2 3 13 9 24 10 19 9 23 -11 28 -27 7 -24 8 -70 -16z"/>
<path d="M470 531 c0 -64 15 -103 37 -99 13 2 17 15 19 53 1 41 -3 54 -23 73
-13 12 -26 22 -29 22 -2 0 -4 -22 -4 -49z"/>
</g>
</svg>
